<svg viewBox="0 0 330 200" xmlns="http://www.w3.org/2000/svg"><g><g><g><g><g><line x1="50" y1="171.84704140437992" x2="45" y2="171.84704140437992" style="visibility: inherit;" fill="rgb(0, 0, 0)" stroke="rgb(204, 204, 204)" stroke-width="1px"></line><line x1="50" y1="152.60350808888043" x2="45" y2="152.60350808888043" style="visibility: inherit;" fill="rgb(0, 0, 0)" stroke="rgb(204, 204, 204)" stroke-width="1px"></line><line x1="50" y1="133.35997477338114" x2="45" y2="133.35997477338114" style="visibility: inherit;" fill="rgb(0, 0, 0)" stroke="rgb(204, 204, 204)" stroke-width="1px"></line><line x1="50" y1="114.11644145788163" x2="45" y2="114.11644145788163" style="visibility: inherit;" fill="rgb(0, 0, 0)" stroke="rgb(204, 204, 204)" stroke-width="1px"></line><line x1="50" y1="94.87290814238213" x2="45" y2="94.87290814238213" style="visibility: inherit;" fill="rgb(0, 0, 0)" stroke="rgb(204, 204, 204)" stroke-width="1px"></line><line x1="50" y1="75.62937482688264" x2="45" y2="75.62937482688264" style="visibility: inherit;" fill="rgb(0, 0, 0)" stroke="rgb(204, 204, 204)" stroke-width="1px"></line><line x1="50" y1="56.385841511383134" x2="45" y2="56.385841511383134" style="visibility: inherit;" fill="rgb(0, 0, 0)" stroke="rgb(204, 204, 204)" stroke-width="1px"></line><line x1="50" y1="37.14230819588363" x2="45" y2="37.14230819588363" style="visibility: inherit;" fill="rgb(0, 0, 0)" stroke="rgb(204, 204, 204)" stroke-width="1px"></line><line x1="50" y1="17.89877488038414" x2="45" y2="17.89877488038414" style="visibility: inherit;" fill="rgb(0, 0, 0)" stroke="rgb(204, 204, 204)" stroke-width="1px"></line></g><g transform="translate(40, 0)"><text x="0" y="171.84704140437992" dx="0em" dy="0.3em" style="text-anchor: end; visibility: inherit; font-family: &quot;Helvetica Neue&quot;, sans-serif; font-size: 12px; font-weight: 200;" fill="rgb(50, 49, 63)" stroke="none" stroke-width="1px">0.92</text><text x="0" y="152.60350808888043" dx="0em" dy="0.3em" style="text-anchor: end; visibility: hidden; font-family: &quot;Helvetica Neue&quot;, sans-serif; font-size: 12px; font-weight: 200;" fill="rgb(50, 49, 63)" stroke="none" stroke-width="1px">0.93</text><text x="0" y="133.35997477338114" dx="0em" dy="0.3em" style="text-anchor: end; visibility: inherit; font-family: &quot;Helvetica Neue&quot;, sans-serif; font-size: 12px; font-weight: 200;" fill="rgb(50, 49, 63)" stroke="none" stroke-width="1px">0.94</text><text x="0" y="114.11644145788163" dx="0em" dy="0.3em" style="text-anchor: end; visibility: hidden; font-family: &quot;Helvetica Neue&quot;, sans-serif; font-size: 12px; font-weight: 200;" fill="rgb(50, 49, 63)" stroke="none" stroke-width="1px">0.95</text><text x="0" y="94.87290814238213" dx="0em" dy="0.3em" style="text-anchor: end; visibility: inherit; font-family: &quot;Helvetica Neue&quot;, sans-serif; font-size: 12px; font-weight: 200;" fill="rgb(50, 49, 63)" stroke="none" stroke-width="1px">0.96</text><text x="0" y="75.62937482688264" dx="0em" dy="0.3em" style="text-anchor: end; visibility: hidden; font-family: &quot;Helvetica Neue&quot;, sans-serif; font-size: 12px; font-weight: 200;" fill="rgb(50, 49, 63)" stroke="none" stroke-width="1px">0.97</text><text x="0" y="56.385841511383134" dx="0em" dy="0.3em" style="text-anchor: end; visibility: inherit; font-family: &quot;Helvetica Neue&quot;, sans-serif; font-size: 12px; font-weight: 200;" fill="rgb(50, 49, 63)" stroke="none" stroke-width="1px">0.98</text><text x="0" y="37.14230819588363" dx="0em" dy="0.3em" style="text-anchor: end; visibility: hidden; font-family: &quot;Helvetica Neue&quot;, sans-serif; font-size: 12px; font-weight: 200;" fill="rgb(50, 49, 63)" stroke="none" stroke-width="1px">0.99</text><text x="0" y="17.89877488038414" dx="0em" dy="0.3em" style="text-anchor: end; visibility: inherit; font-family: &quot;Helvetica Neue&quot;, sans-serif; font-size: 12px; font-weight: 200;" fill="rgb(50, 49, 63)" stroke="none" stroke-width="1px">1</text></g><line x1="50" y1="0" x2="50" y2="178" fill="rgb(0, 0, 0)" stroke="rgb(204, 204, 204)" stroke-width="1px"></line></g></g><g transform="translate(50, 0)" clip-path="url(#clip_0)"><clipPath id="clip_0"><rect width="280" height="178"></rect></clipPath><g><g><g><line x1="11.829135730769938" y1="0" x2="11.829135730769938" y2="178" fill="rgb(0, 0, 0)" stroke="rgb(60, 60, 60)" stroke-width="1px" opacity="0.25"></line><line x1="41.559313605837936" y1="0" x2="41.559313605837936" y2="178" fill="rgb(0, 0, 0)" stroke="rgb(60, 60, 60)" stroke-width="1px" opacity="0.25"></line><line x1="71.28949148090592" y1="0" x2="71.28949148090592" y2="178" fill="rgb(0, 0, 0)" stroke="rgb(60, 60, 60)" stroke-width="1px" opacity="0.25"></line><line x1="101.01966935597392" y1="0" x2="101.01966935597392" y2="178" fill="rgb(0, 0, 0)" stroke="rgb(60, 60, 60)" stroke-width="1px" opacity="0.25"></line><line x1="130.7498472310419" y1="0" x2="130.7498472310419" y2="178" fill="rgb(0, 0, 0)" stroke="rgb(60, 60, 60)" stroke-width="1px" opacity="0.25"></line><line x1="160.4800251061099" y1="0" x2="160.4800251061099" y2="178" fill="rgb(0, 0, 0)" stroke="rgb(60, 60, 60)" stroke-width="1px" opacity="0.25"></line><line x1="190.21020298117793" y1="0" x2="190.21020298117793" y2="178" fill="rgb(0, 0, 0)" stroke="rgb(60, 60, 60)" stroke-width="1px" opacity="0.25"></line><line x1="219.9403808562459" y1="0" x2="219.9403808562459" y2="178" fill="rgb(0, 0, 0)" stroke="rgb(60, 60, 60)" stroke-width="1px" opacity="0.25"></line><line x1="249.6705587313139" y1="0" x2="249.6705587313139" y2="178" fill="rgb(0, 0, 0)" stroke="rgb(60, 60, 60)" stroke-width="1px" opacity="0.25"></line><line x1="279.4007366063819" y1="0" x2="279.4007366063819" y2="178" fill="rgb(0, 0, 0)" stroke="rgb(60, 60, 60)" stroke-width="1px" opacity="0.25"></line></g><g><line x1="0" y1="171.84704140437992" x2="280" y2="171.84704140437992" fill="rgb(0, 0, 0)" stroke="rgb(60, 60, 60)" stroke-width="1px" opacity="0.25"></line><line x1="0" y1="152.60350808888043" x2="280" y2="152.60350808888043" fill="rgb(0, 0, 0)" stroke="rgb(60, 60, 60)" stroke-width="1px" opacity="0.25"></line><line x1="0" y1="133.35997477338114" x2="280" y2="133.35997477338114" fill="rgb(0, 0, 0)" stroke="rgb(60, 60, 60)" stroke-width="1px" opacity="0.25"></line><line x1="0" y1="114.11644145788163" x2="280" y2="114.11644145788163" fill="rgb(0, 0, 0)" stroke="rgb(60, 60, 60)" stroke-width="1px" opacity="0.25"></line><line x1="0" y1="94.87290814238213" x2="280" y2="94.87290814238213" fill="rgb(0, 0, 0)" stroke="rgb(60, 60, 60)" stroke-width="1px" opacity="0.25"></line><line x1="0" y1="75.62937482688264" x2="280" y2="75.62937482688264" fill="rgb(0, 0, 0)" stroke="rgb(60, 60, 60)" stroke-width="1px" opacity="0.25"></line><line x1="0" y1="56.385841511383134" x2="280" y2="56.385841511383134" fill="rgb(0, 0, 0)" stroke="rgb(60, 60, 60)" stroke-width="1px" opacity="0.25"></line><line x1="0" y1="37.14230819588363" x2="280" y2="37.14230819588363" fill="rgb(0, 0, 0)" stroke="rgb(60, 60, 60)" stroke-width="1px" opacity="0.25"></line><line x1="0" y1="17.89877488038414" x2="280" y2="17.89877488038414" fill="rgb(0, 0, 0)" stroke="rgb(60, 60, 60)" stroke-width="1px" opacity="0.25"></line></g></g></g><g><g><line x1="0" y1="1942.2521064303323" x2="280" y2="1942.2521064303323" fill="rgb(0, 0, 0)" stroke="rgb(153, 153, 153)" stroke-width="1.5px"></line></g></g><g><g><line x1="41.559313605837936" y1="0" x2="41.559313605837936" y2="178" fill="rgb(0, 0, 0)" stroke="rgb(153, 153, 153)" stroke-width="1.5px"></line></g></g><g><g><g><g><g><path stroke="rgb(0, 119, 187)" stroke-width="2px" d="M41.559313605837936,84.09650305873095L47.50534918085153,69.5401377308673L53.45138475586513,67.06232677002808L59.39742033087873,63.17411373577289L65.34345590589233,138.15768845828813L71.28949148090592,79.51970803304803L77.23552705591952,59.91380051644073L83.18156263093313,53.86794426505405L89.12759820594673,52.182800176612915L95.07363378096032,52.94495038442956L101.01966935597392,47.971477617215015L106.96570493098753,45.58723431058391L112.91174050600112,46.38511385392363L118.85777608101473,45.07642797246487L124.80381165602833,45.17684698234851L130.7498472310419,44.94827405083126L136.69588280605552,45.396567029696115L142.64191838106913,45.8018252130056L148.58795395608274,45.93231834752825L154.5339895310963,46.235322749180455L160.4800251061099,46.07190455411089L166.42606068112352,45.75837604981936L172.3720962561371,45.65741987144182L178.3181318311507,45.62491198200462L184.26416740616432,45.614444441606L190.21020298117793,45.3500882812466" style="fill: none;" fill="none"></path></g><g><path stroke="rgb(255, 112, 67)" stroke-width="2px" d="M41.559313605837936,157.08197131591223L47.50534918085153,94.91305483603368L53.45138475586513,68.55196951758347L59.39742033087873,54.02690743537546L65.34345590589233,42.801263409724925L71.28949148090592,35.89665687567859L77.23552705591952,32.13775913142044L83.18156263093313,28.010453261462345L89.12759820594673,25.66186011252654L95.07363378096032,23.150238888277187L101.01966935597392,20.823275388433757L106.96570493098753,19.528388158314414L112.91174050600112,18.565823341055847L118.85777608101473,18.13728332455989L124.80381165602833,17.975574592701037L130.7498472310419,17.923504387054805L136.69588280605552,17.906737781459924L142.64191838106913,17.901338934523324L148.58795395608274,17.89960050581618L154.5339895310963,17.899040731773113L160.4800251061099,17.898860484531525L166.42606068112352,17.89880244491971L172.3720962561371,17.898783756164875L178.3181318311507,17.898777738385547L184.26416740616432,17.898775800660815L190.21020298117793,17.898775176713258" style="fill: none;" fill="none"></path></g></g></g></g><g opacity="0.2"><g><g><g><path stroke="rgb(0, 119, 187)" stroke-width="2px" d="M41.559313605837936,84.09650305873095L47.50534918085153,64.85298809529495L53.45138475586513,66.00756228897414L59.39742033087873,61.389150813860596L65.34345590589233,173.386518013439L71.28949148090592,51.76739333214259L77.23552705591952,50.612819138463394L83.18156263093313,50.99763896955754L89.12759820594673,51.38257350104844L95.07363378096032,53.3069020573127L101.01966935597392,45.60947313185895L106.96570493098753,44.454898938179724L112.91174050600112,46.764047325538144L118.85777608101473,44.454898938179724L124.80381165602833,45.22453860036805L130.7498472310419,44.8397187692739L136.69588280605552,45.60947313185895L142.64191838106913,45.9942929629531L148.58795395608274,45.9942929629531L154.5339895310963,46.379227494443995L160.4800251061099,45.9942929629531L166.42606068112352,45.60947313185895L172.3720962561371,45.60947313185895L178.3181318311507,45.60947313185895L184.26416740616432,45.60947313185895L190.21020298117793,45.22453860036805" style="fill: none;" fill="none"></path></g><g><path stroke="rgb(255, 112, 67)" stroke-width="2px" d="M41.559313605837936,157.08197131591223L47.50534918085153,74.8946637295124L53.45138475586513,57.33047727488399L59.39742033087873,47.3588835830804L65.34345590589233,37.52722437531105L71.28949148090592,32.628829231732254L77.23552705591952,30.354549764985677L83.18156263093313,26.050990878949165L89.12759820594673,24.546580475184356L95.07363378096032,21.95744841936073L101.01966935597392,19.718152573622717L106.96570493098753,18.913414590029106L112.91174050600112,18.108676606435495L118.85777608101473,17.933758501392703L124.80381165602833,17.89877488038414L130.7498472310419,17.89877488038414L136.69588280605552,17.89877488038414L142.64191838106913,17.89877488038414L148.58795395608274,17.89877488038414L154.5339895310963,17.89877488038414L160.4800251061099,17.89877488038414L166.42606068112352,17.89877488038414L172.3720962561371,17.89877488038414L178.3181318311507,17.89877488038414L184.26416740616432,17.89877488038414L190.21020298117793,17.89877488038414" style="fill: none;" fill="none"></path></g></g></g></g></g></g><g transform="translate(50, 178)" clip-path="url(#clip_1)"><clipPath id="clip_1"><rect width="280" height="22"></rect></clipPath><g><g><line x1="11.829135730769938" y1="0" x2="11.829135730769938" y2="5" style="visibility: inherit;" fill="rgb(0, 0, 0)" stroke="rgb(204, 204, 204)" stroke-width="1px"></line><line x1="41.559313605837936" y1="0" x2="41.559313605837936" y2="5" style="visibility: inherit;" fill="rgb(0, 0, 0)" stroke="rgb(204, 204, 204)" stroke-width="1px"></line><line x1="71.28949148090592" y1="0" x2="71.28949148090592" y2="5" style="visibility: inherit;" fill="rgb(0, 0, 0)" stroke="rgb(204, 204, 204)" stroke-width="1px"></line><line x1="101.01966935597392" y1="0" x2="101.01966935597392" y2="5" style="visibility: inherit;" fill="rgb(0, 0, 0)" stroke="rgb(204, 204, 204)" stroke-width="1px"></line><line x1="130.7498472310419" y1="0" x2="130.7498472310419" y2="5" style="visibility: inherit;" fill="rgb(0, 0, 0)" stroke="rgb(204, 204, 204)" stroke-width="1px"></line><line x1="160.4800251061099" y1="0" x2="160.4800251061099" y2="5" style="visibility: inherit;" fill="rgb(0, 0, 0)" stroke="rgb(204, 204, 204)" stroke-width="1px"></line><line x1="190.21020298117793" y1="0" x2="190.21020298117793" y2="5" style="visibility: inherit;" fill="rgb(0, 0, 0)" stroke="rgb(204, 204, 204)" stroke-width="1px"></line><line x1="219.9403808562459" y1="0" x2="219.9403808562459" y2="5" style="visibility: inherit;" fill="rgb(0, 0, 0)" stroke="rgb(204, 204, 204)" stroke-width="1px"></line><line x1="249.6705587313139" y1="0" x2="249.6705587313139" y2="5" style="visibility: inherit;" fill="rgb(0, 0, 0)" stroke="rgb(204, 204, 204)" stroke-width="1px"></line><line x1="279.4007366063819" y1="0" x2="279.4007366063819" y2="5" style="visibility: inherit;" fill="rgb(0, 0, 0)" stroke="rgb(204, 204, 204)" stroke-width="1px"></line></g><g transform="translate(0, 8)"><text x="11.829135730769938" y="0" dx="0em" dy="0.95em" style="text-anchor: middle; visibility: inherit; font-family: &quot;Helvetica Neue&quot;, sans-serif; font-size: 12px; font-weight: 200;" fill="rgb(50, 49, 63)" stroke="none" stroke-width="1px">-5</text><text x="41.559313605837936" y="0" dx="0em" dy="0.95em" style="text-anchor: middle; visibility: inherit; font-family: &quot;Helvetica Neue&quot;, sans-serif; font-size: 12px; font-weight: 200;" fill="rgb(50, 49, 63)" stroke="none" stroke-width="1px">0</text><text x="71.28949148090592" y="0" dx="0em" dy="0.95em" style="text-anchor: middle; visibility: inherit; font-family: &quot;Helvetica Neue&quot;, sans-serif; font-size: 12px; font-weight: 200;" fill="rgb(50, 49, 63)" stroke="none" stroke-width="1px">5</text><text x="101.01966935597392" y="0" dx="0em" dy="0.95em" style="text-anchor: middle; visibility: inherit; font-family: &quot;Helvetica Neue&quot;, sans-serif; font-size: 12px; font-weight: 200;" fill="rgb(50, 49, 63)" stroke="none" stroke-width="1px">10</text><text x="130.7498472310419" y="0" dx="0em" dy="0.95em" style="text-anchor: middle; visibility: inherit; font-family: &quot;Helvetica Neue&quot;, sans-serif; font-size: 12px; font-weight: 200;" fill="rgb(50, 49, 63)" stroke="none" stroke-width="1px">15</text><text x="160.4800251061099" y="0" dx="0em" dy="0.95em" style="text-anchor: middle; visibility: inherit; font-family: &quot;Helvetica Neue&quot;, sans-serif; font-size: 12px; font-weight: 200;" fill="rgb(50, 49, 63)" stroke="none" stroke-width="1px">20</text><text x="190.21020298117793" y="0" dx="0em" dy="0.95em" style="text-anchor: middle; visibility: inherit; font-family: &quot;Helvetica Neue&quot;, sans-serif; font-size: 12px; font-weight: 200;" fill="rgb(50, 49, 63)" stroke="none" stroke-width="1px">25</text><text x="219.9403808562459" y="0" dx="0em" dy="0.95em" style="text-anchor: middle; visibility: inherit; font-family: &quot;Helvetica Neue&quot;, sans-serif; font-size: 12px; font-weight: 200;" fill="rgb(50, 49, 63)" stroke="none" stroke-width="1px">30</text><text x="249.6705587313139" y="0" dx="0em" dy="0.95em" style="text-anchor: middle; visibility: inherit; font-family: &quot;Helvetica Neue&quot;, sans-serif; font-size: 12px; font-weight: 200;" fill="rgb(50, 49, 63)" stroke="none" stroke-width="1px">35</text><text x="279.4007366063819" y="0" dx="0em" dy="0.95em" style="text-anchor: middle; visibility: hidden; font-family: &quot;Helvetica Neue&quot;, sans-serif; font-size: 12px; font-weight: 200;" fill="rgb(50, 49, 63)" stroke="none" stroke-width="1px">40</text></g><line x1="0" y1="0" x2="280" y2="0" fill="rgb(0, 0, 0)" stroke="rgb(204, 204, 204)" stroke-width="1px"></line></g></g></g></g></svg>